<?xml version="1.0" encoding="utf-8"?>
<!-- Generator: Adobe Illustrator 16.0.0, SVG Export Plug-In . SVG Version: 6.00 Build 0)  -->
<!DOCTYPE svg PUBLIC "-//W3C//DTD SVG 1.0//EN" "http://www.w3.org/TR/2001/REC-SVG-20010904/DTD/svg10.dtd">
<svg version="1.0" id="Layer_1" xmlns="http://www.w3.org/2000/svg" xmlns:xlink="http://www.w3.org/1999/xlink" x="0px" y="0px"
	 width="1056.828px" height="312.219px" viewBox="0 0 1056.828 312.219" enable-background="new 0 0 1056.828 312.219"
	 xml:space="preserve">
<g>
	<g>
		<path fill-rule="evenodd" clip-rule="evenodd" fill="#C2C2C2" d="M0,166.293c4.34-2.57,9.346-2.069,14.036-2.777
			c5.881-0.889,11.902-0.9,17.867-1.181c21.93-1.03,43.897-1.719,65.816-0.764c17.359,0.757,34.863,0.118,52.044,3.635
			c0.946,0.194,2.055,0.063,2.587,1.604c-2.604,2.381-6.177,1.543-9.216,2.266c-3.671,0.873-7.557,0.955-11.36,1.141
			c-30.245,1.479-60.525,1.672-90.77,0.804C27.336,170.627,13.45,170.857,0,167.293C0,166.96,0,166.626,0,166.293z"/>
		<path fill-rule="evenodd" clip-rule="evenodd" fill="#323B40" d="M329.888,28.805c-13.303-4.834-26.213-6.929-39.385-7.426
			c-8.021-0.302-16.002,0.275-23.638,2.929c-15.354,5.336-17.329,18.789-13.435,29.836c2.689,7.628,9.286,10.525,16.854,11.196
			c10.621,0.941,21.289-0.058,31.942,0.767c28.99,2.244,43.77,29.878,29.239,55.271c-5.815,10.163-15.567,14.772-26.526,16.804
			c-20.64,3.825-41.069,1.54-61.35-2.973c-0.956-0.213-2.345-0.328-2.387-1.417c-0.182-4.654-0.358-9.334-0.042-13.971
			c0.116-1.711,1.972-0.519,2.847-0.22c12.243,4.169,24.921,5.799,37.747,6.37c7.498,0.333,14.983-0.222,22.148-2.741
			c12.939-4.55,18.921-18.966,13.127-31.457c-3.127-6.741-8.886-9.574-15.845-10.532c-8.95-1.232-17.957-0.576-26.939-0.731
			c-3.825-0.066-7.637-0.108-11.431-0.873c-17.527-3.531-26.953-13.444-27.964-29.561c-1.295-20.665,6.217-33.057,23.839-38.761
			c16.887-5.467,34.169-4.562,51.427-2.424c5.753,0.714,11.395,2.291,17.118,3.294c2.117,0.372,2.715,1.417,2.677,3.383
			C329.831,19.72,329.888,23.874,329.888,28.805z"/>
		<path fill-rule="evenodd" clip-rule="evenodd" fill="#323B40" d="M403.959,26.442c-15.257,36.951-30.017,72.529-44.562,108.194
			c-1.413,3.466-2.983,5.09-6.792,4.605c-2.624-0.333-5.339-0.238-7.988-0.024c-3.996,0.323-5.262-0.295-3.313-4.713
			c7.774-17.63,15.154-35.435,22.677-53.177c9.79-23.088,19.645-46.149,29.28-69.302c1.245-2.991,2.758-4.07,5.876-3.783
			c4.939,0.456,10.953-1.86,14.578,0.872c3.365,2.537,4.332,8.328,6.215,12.745c15.832,37.126,31.64,74.261,47.412,111.411
			c0.756,1.78,2.106,3.423,1.766,5.9c-4.975,0-9.952-0.185-14.906,0.072c-2.795,0.145-3.282-1.708-4.038-3.499
			c-4.775-11.322-9.629-22.614-14.21-34.016c-1.185-2.946-2.736-3.916-5.876-3.866c-11.829,0.189-23.665-0.015-35.495,0.142
			c-3.338,0.044-3.945-0.668-2.811-3.937c3.452-9.949,3.312-9.999,13.713-9.998c6.332,0,12.666-0.046,18.997,0.029
			c2.193,0.025,3.152-0.481,2.169-2.847C419.227,63.383,411.842,45.497,403.959,26.442z"/>
		<path fill-rule="evenodd" clip-rule="evenodd" fill="#296C7C" d="M1.135,74.81c9.423-13.958,18.761-26.783,35.895-29.946
			c11.169-2.062,20.507,2.36,28.698,9.712c1.58,1.418,1.398,2.478,0.262,4.199c-6.958,10.546-6.76,16.881,0.602,26.84
			c0.871,1.178,2.236,2.12,0.716,3.8c-6.472,7.152-13.532,13.616-23.562,14.771c-11.422,1.314-18.789-5.19-24.371-14.208
			c-1.654-2.672-2.797-5.657-4.22-8.476C11.63,74.514,9.808,73.565,1.135,74.81z"/>
		<path fill-rule="evenodd" clip-rule="evenodd" fill="#187C00" d="M123.172,147.798c-14.271-2.186-27.476-5.194-37.705-15.221
			c-9.762-9.568-10.393-21.286-6.901-33.729c0.62-2.207,1.767-2.676,4.032-2.289c11.276,1.922,18.038-1.212,23.284-11.367
			c1.901-3.68,3.934-4.162,7.235-2.598c2.992,1.418,6.112,2.604,8.983,4.231c15.3,8.676,18.51,24.196,7.99,38.403
			c-1.677,2.265-3.58,4.362-5.384,6.532C119.246,138.328,119.099,139.41,123.172,147.798z"/>
		<path fill-rule="evenodd" clip-rule="evenodd" fill="#74BE00" d="M125.729,0c3.859,4.915,5.674,10.581,7.471,16.158
			c4.32,13.41,4.671,26.44-5.015,38.03c-4.607,5.513-10.723,8.671-17.48,10.787c-1.619,0.508-2.333,0.253-2.933-1.423
			c-4.222-11.794-12.694-15.865-24.7-13.394c-1.614,0.332-2.63,0.063-3.196-1.99c-2.049-7.428-3.613-14.796-2.077-22.582
			c1.711-8.678,8.25-15.479,17.074-17.31c5.255-1.091,10.447-1.45,15.842-0.537C119.003,9.144,121.847,7.503,125.729,0z"/>
		<path fill-rule="evenodd" clip-rule="evenodd" fill="#323A3F" d="M1016.933,86.348c7.316,0.291,14.638,0.014,21.836,1.877
			c11.009,2.849,16.688,9.304,17.886,20.56c1.2,11.294-3.861,20.914-13.627,25.455c-10.576,4.918-21.883,5.22-33.223,4.61
			c-7.802-0.419-15.552-1.495-23.121-3.572c-2.749-0.754-4.893-7.152-3.078-9.336c1.195-1.438,2.446-0.107,3.595,0.218
			c11.287,3.196,22.763,4.796,34.501,4.113c5.5-0.319,10.897-1.188,15.871-3.78c6.594-3.436,10.028-9.729,9.165-16.81
			c-0.829-6.801-4.944-10.838-12.855-12.604c-7.58-1.692-15.269-0.711-22.905-0.846c-5.183-0.092-10.289-0.417-15.305-1.787
			c-9.522-2.6-15.1-8.825-16.495-18.52c-1.812-12.585,2.256-22.055,11.247-27.237c5.44-3.136,11.396-4.751,17.534-5.224
			c13.325-1.026,26.6-0.613,39.639,2.815c3.715,0.977,6.229,6.206,4.259,9.358c-1.104,1.764-2.621,0.358-3.897,0.002
			c-10.959-3.065-22.089-4.762-33.491-4.106c-4.984,0.287-9.923,0.99-14.615,2.852c-8.305,3.295-12.212,10.397-10.814,19.641
			c1.062,7.029,6.825,11.743,15.419,12.277C1008.6,86.561,1012.772,86.348,1016.933,86.348z"/>
		<path fill-rule="evenodd" clip-rule="evenodd" fill="#333C41" d="M219.661,73.292c0.002,20.329-0.103,40.66,0.092,60.987
			c0.038,3.933-1.006,5.064-4.984,5.003c-12.433-0.193-12.435-0.021-12.435-12.465c0.001-37.826,0.075-75.652-0.102-113.478
			c-0.02-4.233,1.148-5.243,5.248-5.154c12.175,0.263,12.179,0.08,12.179,12.116C219.659,37.965,219.659,55.629,219.661,73.292z"/>
		<path fill-rule="evenodd" clip-rule="evenodd" fill="#333B40" d="M625.224,78.057c-0.003,18.986-0.164,37.975,0.115,56.956
			c0.066,4.469-2.13,4.218-5.143,4.214c-3.007-0.004-5.217,0.25-5.194-4.208c0.189-37.638,0.021-75.277,0.223-112.915
			c0.025-4.614-1.205-5.829-5.74-5.696c-11.315,0.33-22.649-0.011-33.971,0.178c-3.239,0.055-4.346-0.78-4.287-4.14
			c0.055-3.126,0.707-4.255,4.133-4.238c30.144,0.142,60.288,0.129,90.432,0.009c3.227-0.013,4.273,0.795,4.221,4.113
			c-0.05,3.122-0.701,4.319-4.111,4.26c-11.988-0.207-23.983,0.058-35.971-0.166c-3.665-0.068-4.836,0.837-4.795,4.677
			C625.338,40.084,625.227,59.07,625.224,78.057z"/>
		<path fill-rule="evenodd" clip-rule="evenodd" fill="#343B3F" d="M767.004,74.186c0,20.166-0.167,40.334,0.128,60.496
			c0.066,4.556-1.955,4.479-5.283,4.601c-3.581,0.133-4.853-0.643-4.837-4.597c0.16-40.664,0.197-81.33-0.032-121.995
			c-0.026-4.721,2.147-4.354,5.351-4.498c3.488-0.158,4.838,0.467,4.788,4.496C766.868,33.185,767.003,53.686,767.004,74.186z"/>
		<path fill-rule="evenodd" clip-rule="evenodd" fill="#353D42" d="M521.815,95.303c-6.655,0.003-13.319-0.202-19.962,0.085
			c-3.583,0.155-3.185-1.922-3.079-4.089c0.104-2.135-0.92-4.766,3.079-4.72c13.309,0.151,26.621,0.15,39.93,0.011
			c3.945-0.041,3.017,2.525,3.123,4.71c0.108,2.24,0.335,4.204-3.128,4.073C535.133,95.122,528.471,95.3,521.815,95.303z"/>
		<path fill-rule="evenodd" clip-rule="evenodd" fill="#396E79" d="M922.762,223.863c-0.004-4.159-0.023-8.318,0.013-12.477
			c0.007-0.769-0.171-1.791,0.932-2.021c1.197-0.25,1.211,0.727,1.371,1.521c0.464,2.285,1.72,0.754,2.542,0.427
			c5.525-2.197,10.994-4.275,16.219,0.708c0.956,0.911,1.821,0.002,2.647-0.479c2.18-1.268,4.51-2.111,7.02-2.377
			c7.357-0.782,11.12,2.333,11.356,9.675c0.176,5.484,0.066,10.979,0.01,16.469c-0.014,1.358,0.616,3.512-1.685,3.385
			c-2.264-0.126-1.344-2.307-1.37-3.6c-0.105-5.155,0.05-10.315-0.062-15.47c-0.118-5.481-2.652-8.165-7.338-8.072
			c-5.779,0.115-8.687,2.848-8.708,8.223c-0.021,5.323,0.009,10.647-0.039,15.971c-0.011,1.257,0.297,2.995-1.672,2.996
			c-1.965,0.001-1.657-1.714-1.669-2.987c-0.054-5.821-0.109-11.644-0.079-17.465c0.025-4.617-2.436-6.719-6.795-6.697
			c-5.99,0.03-9.501,2.896-9.531,7.578c-0.034,5.323,0.018,10.647-0.049,15.971c-0.018,1.364,0.677,3.486-1.496,3.595
			c-2.394,0.12-1.54-2.103-1.575-3.395C922.698,231.519,922.766,227.689,922.762,223.863z"/>
		<path fill-rule="evenodd" clip-rule="evenodd" fill="#23780E" d="M544.034,270.891c1.346,3.603,3.122,3.376,5.95,2.138
			c4.438-1.944,9.31-3.104,13.424,1.044c1.342,1.353,2.405,0.652,3.479-0.078c2.278-1.553,4.874-2.189,7.504-2.501
			c6.308-0.747,10.362,2.644,10.573,8.976c0.2,5.987,0.098,11.985,0.062,17.979c-0.007,1.185,0.501,2.946-1.738,2.724
			c-1.787-0.177-1.275-1.675-1.286-2.704c-0.055-5.327,0.015-10.655-0.034-15.983c-0.056-5.992-2.186-8.319-7.425-8.26
			c-5.945,0.066-8.615,2.593-8.618,8.163c-0.003,5.328,0.013,10.656-0.01,15.983c-0.006,1.285,0.26,2.914-1.822,2.762
			c-1.733-0.126-1.374-1.615-1.383-2.681c-0.045-5.327,0.099-10.658-0.049-15.982c-0.183-6.581-1.917-8.437-7.237-8.238
			c-6.543,0.243-9.389,2.843-9.396,8.593c-0.006,5.162,0.031,10.323-0.032,15.484c-0.014,1.174,0.584,2.929-1.634,2.888
			c-1.883-0.036-1.372-1.564-1.377-2.577c-0.044-8.957-0.025-17.914-0.025-26.872C543.318,271.462,543.676,271.176,544.034,270.891z
			"/>
		<path fill-rule="evenodd" clip-rule="evenodd" fill="#356C79" d="M526.206,234.812c2.892-8.008,5.304-14.856,7.864-21.649
			c0.544-1.442,0.427-3.763,2.51-3.901c2.258-0.15,2.076,2.218,2.642,3.637c2.639,6.617,5.191,13.268,8.267,21.168
			c2.009-7.586,3.7-13.979,5.397-20.369c0.299-1.122,0.622-2.238,0.941-3.354c0.268-0.937,0.887-1.375,1.851-1.178
			c1.545,0.316,1.004,1.312,0.752,2.279c-2.181,8.353-4.342,16.711-6.491,25.071c-0.306,1.19-0.7,2.238-2.141,2.393
			c-1.848,0.198-2.175-1.319-2.624-2.49c-2.381-6.208-4.704-12.439-6.987-18.684c-0.398-1.092-0.499-2.296-1.852-3.043
			c-2.555,7.019-5.062,14.019-7.673,20.979c-0.542,1.446-0.778,3.447-3.146,3.188c-2.144-0.235-1.846-2.244-2.18-3.475
			c-2.091-7.691-3.986-15.437-5.9-23.176c-0.248-1.006-1.216-2.403,0.444-2.956c1.854-0.618,2.109,0.931,2.444,2.269
			C522.171,218.904,524.048,226.281,526.206,234.812z"/>
		<path fill-rule="evenodd" clip-rule="evenodd" fill="#277A14" d="M232.214,291.561c0.054,9.541-0.111,9.795-9.826,10.054
			c-20.811,0.554-25.165-13.521-21.788-29.046c1.26-5.789,5.353-9.42,11.039-11.132c5.548-1.67,11.175-1.594,16.786-0.472
			c1.437,0.287,4.104,0.037,3.528,2.4c-0.466,1.913-2.471,0.339-3.804,0.239c-2.816-0.211-5.644-0.621-8.453-0.53
			c-6.454,0.209-12.501,1.927-15.229,8.401c-2.978,7.068-2.805,14.384,1.444,21.055c3.385,5.312,16.533,8.405,21.888,5.522
			c1.568-0.845,1.23-2.201,1.252-3.467c0.056-3.166,0.04-6.332,0.041-9.498c0.001-1.286,0.275-2.436,1.861-2.317
			c1.41,0.104,1.212,1.363,1.237,2.292C232.249,287.228,232.21,289.395,232.214,291.561z"/>
		<path fill-rule="evenodd" clip-rule="evenodd" fill="#336C77" d="M200.954,218.443c0.003-5.665,0.122-11.333-0.051-16.992
			c-0.08-2.605,0.715-3.5,3.364-3.402c4.991,0.184,9.994,0.022,14.992,0.052c4.869,0.027,8.947,1.437,10.449,6.672
			c1.454,5.068-0.789,10.627-5.561,13.279c-2.295,1.275-4.903,2.013-7.41,2.875c-1.235,0.425-2.939,0.938-3.317-0.874
			c-0.344-1.645,1.461-1.412,2.474-1.674c3.265-0.84,6.373-1.941,8.623-4.641c2.232-2.679,2.61-5.767,1.436-8.902
			c-1.158-3.095-3.934-3.878-6.933-3.853c-4.808,0.041-10.922-1.555-14.047,0.79c-3.02,2.265-0.814,8.731-0.927,13.346
			c-0.162,6.66,0.012,13.328-0.083,19.99c-0.019,1.292,0.935,3.544-1.313,3.622c-2.728,0.095-1.612-2.411-1.645-3.796
			C200.875,229.44,200.951,223.94,200.954,218.443z"/>
		<path fill-rule="evenodd" clip-rule="evenodd" fill="#3F747F" d="M278.277,223.605c-0.004-3.991-0.021-7.983,0.008-11.974
			c0.007-0.956-0.156-2.147,1.2-2.359c1.05-0.164,1.321,0.621,1.494,1.526c0.478,2.499,1.856,1.022,2.905,0.562
			c3.55-1.554,7.214-2.521,11.118-2.306c5.432,0.302,8.468,2.867,8.767,8.256c0.349,6.301,0.133,12.633,0.159,18.951
			c0.005,1.211-0.07,2.516-1.655,2.525c-1.726,0.01-1.504-1.468-1.512-2.57c-0.034-5.488,0.072-10.979-0.043-16.464
			c-0.137-6.562-3.049-8.862-9.623-7.825c-8.65,1.363-9.37,2.181-9.367,10.622c0.001,4.49,0.005,8.98-0.01,13.471
			c-0.004,1.355,0.017,2.906-1.935,2.744c-1.569-0.129-1.494-1.523-1.498-2.688C278.273,231.92,278.281,227.763,278.277,223.605z"/>
		<path fill-rule="evenodd" clip-rule="evenodd" fill="#2D7D17" d="M511.341,270.822c1.409,4.071,3.62,3.61,6.535,2.3
			c2.352-1.058,5.097-1.555,7.698-1.679c5.929-0.282,9.381,2.364,9.842,8.122c0.517,6.439,0.255,12.941,0.323,19.417
			c0.014,1.273-0.237,2.385-1.888,2.245c-1.654-0.14-1.582-1.416-1.588-2.578c-0.026-5.65,0.028-11.302-0.065-16.951
			c-0.097-5.837-2.114-7.586-8.016-7.463c-2.748,0.058-5.126,1.218-7.638,2.035c-2.396,0.779-3.348,2.204-3.268,4.807
			c0.179,5.812,0.075,11.632,0.036,17.448c-0.007,1.074,0.315,2.487-1.426,2.645c-1.261,0.113-1.803-0.655-1.805-1.807
			c-0.014-9.222-0.008-18.444-0.008-27.666C510.497,271.405,510.919,271.113,511.341,270.822z"/>
		<path fill-rule="evenodd" clip-rule="evenodd" fill="#3F727E" d="M398.099,223.647c0-4.154-0.005-8.308,0.005-12.462
			c0.002-0.829,0.021-1.76,1.088-1.902c0.693-0.093,1.28,0.325,1.404,1.088c0.422,2.58,1.85,1.548,3.23,0.959
			c2.906-1.238,5.864-2.22,9.095-2.281c7.087-0.137,10.337,2.484,10.697,9.436c0.301,5.801,0.091,11.628,0.083,17.443
			c-0.002,1.313,0.14,2.962-1.818,2.845c-1.908-0.114-1.595-1.795-1.602-3.071c-0.029-5.482,0.049-10.967-0.044-16.448
			c-0.102-5.942-3.024-8.35-8.955-7.474c-1.47,0.218-2.918,0.618-4.355,1.01c-4.134,1.125-6.421,3.246-5.805,8.136
			c0.558,4.416,0.242,8.963,0.056,13.441c-0.063,1.522,1.253,4.4-1.593,4.271c-2.599-0.117-1.362-2.918-1.445-4.525
			c-0.182-3.48-0.056-6.976-0.056-10.465C398.089,223.647,398.094,223.647,398.099,223.647z"/>
		<path fill-rule="evenodd" clip-rule="evenodd" fill="#267A12" d="M739.067,301.557c-2.266-0.354-4.882-0.817-7.514-1.153
			c-1.395-0.178-2.357-0.774-1.91-2.2c0.405-1.293,1.543-0.727,2.505-0.475c3.59,0.938,7.249,0.962,10.908,0.599
			c3.533-0.351,6.214-1.842,5.939-5.887c-0.255-3.772-3.114-4.173-6.159-4.228c-2.982-0.054-5.982,0.313-8.943-0.495
			c-3.894-1.063-5.877-3.526-5.922-7.562c-0.045-4.047,2-6.575,5.75-7.775c5.091-1.629,10.202-1.036,15.308-0.005
			c1.067,0.215,2.012,0.598,1.781,1.879c-0.26,1.453-1.551,1.147-2.385,0.897c-3.425-1.025-6.916-1.042-10.408-0.83
			c-3.65,0.222-6.744,1.665-6.781,5.784c-0.038,4.243,3.241,4.853,6.667,4.869c1.999,0.01,4.006-0.01,5.994,0.161
			c4.269,0.367,7.923,1.56,8.286,6.776c0.354,5.081-1.728,7.75-7.263,8.956C743.146,301.256,741.297,301.307,739.067,301.557z"/>
		<path fill-rule="evenodd" clip-rule="evenodd" fill="#277B14" d="M866.326,301.549c-2.31-0.345-5.093-0.788-7.885-1.167
			c-1.351-0.183-2.383-0.793-1.951-2.216c0.388-1.28,1.604-0.756,2.529-0.494c3.752,1.061,7.585,1.053,11.386,0.594
			c3.179-0.384,5.868-1.625,5.632-5.585c-0.226-3.8-2.876-4.381-5.951-4.467c-3.145-0.088-6.297,0.312-9.43-0.559
			c-3.764-1.045-5.5-3.564-5.658-7.253c-0.16-3.714,1.512-6.518,5.027-7.798c5.349-1.948,10.81-1.355,16.239-0.194
			c0.892,0.19,1.565,0.631,1.515,1.638c-0.076,1.516-1.293,1.44-2.178,1.181c-3.578-1.052-7.217-1.191-10.876-0.87
			c-3.674,0.323-6.711,1.907-6.541,6.017c0.174,4.191,3.577,4.586,6.939,4.598c1.994,0.008,3.992,0.082,5.979,0.235
			c4.336,0.335,7.842,1.715,8.185,6.854c0.323,4.857-2.01,7.679-7.491,8.846C870.182,301.253,868.504,301.304,866.326,301.549z"/>
		<path fill-rule="evenodd" clip-rule="evenodd" fill="#257C10" d="M985.107,297.743c3.491-8.472,6.588-15.962,9.661-23.461
			c0.631-1.54,1.192-3.716,3.286-2.648c1.848,0.941,0.074,2.756-0.384,3.869c-3.775,9.183-7.767,18.276-11.682,27.402
			c-1.402,3.267-3.27,6.179-6.441,7.973c-1.001,0.565-2.194,2.217-3.324,0.747c-1.091-1.418,0.301-2.254,1.513-2.998
			c0.967-0.593,1.786-1.451,2.601-2.263c2.484-2.472,3.061-5.086,1.455-8.482c-3.184-6.735-6.074-13.615-8.893-20.514
			c-0.731-1.791-3.267-4.494-1.115-5.546c3.048-1.488,3.229,2.388,4.049,4.242c2.807,6.354,5.363,12.818,8.026,19.236
			C984.089,295.853,984.401,296.37,985.107,297.743z"/>
		<path fill-rule="evenodd" clip-rule="evenodd" fill="#346C79" d="M984.117,235.464c3.318-8.246,6.146-15.31,9.012-22.358
			c0.494-1.218,0.984-2.501,1.792-3.499c0.362-0.448,1.558-0.489,2.275-0.312c0.787,0.195,0.598,0.985,0.297,1.627
			c-5.278,11.255-8.842,23.277-15.224,34.035c-0.414,0.698-0.971,1.428-1.646,1.832c-1.702,1.018-3.588,4-5.328,1.926
			c-1.538-1.833,1.861-2.485,3.013-3.639c2.926-2.934,4.458-5.666,2.308-10.041c-3.582-7.289-6.542-14.886-9.68-22.388
			c-0.435-1.041-2.029-2.487-0.177-3.368c1.754-0.833,2.582,0.693,3.198,2.196c2.646,6.449,5.337,12.88,8.027,19.311
			C982.479,231.966,983.044,233.115,984.117,235.464z"/>
		<path fill-rule="evenodd" clip-rule="evenodd" fill="#24790F" d="M825.422,270.783c0.649,4.4,2.767,3.769,5.42,2.611
			c2.098-0.914,4.424-1.42,6.7-1.789c7.339-1.187,11.511,2.258,11.692,9.682c0.135,5.493,0.107,10.993,0.019,16.488
			c-0.02,1.262,0.857,3.487-1.646,3.325c-2.269-0.146-1.471-2.246-1.491-3.571c-0.085-5.329,0.034-10.662-0.059-15.991
			c-0.097-5.535-2.102-7.297-7.733-7.321c-3.464-0.016-6.416,1.513-9.501,2.726c-2.104,0.827-1.754,2.587-1.765,4.193
			c-0.038,5.83-0.004,11.66-0.051,17.49c-0.008,1.062,0.357,2.465-1.455,2.592c-1.484,0.104-1.559-0.937-1.56-1.952
			c-0.016-9.222-0.01-18.442-0.01-27.664C824.463,271.329,824.942,271.056,825.422,270.783z"/>
		<path fill-rule="evenodd" clip-rule="evenodd" fill="#247A12" d="M625.211,270.841c1.1,4.045,3.173,3.721,5.99,2.464
			c2.377-1.062,5.076-1.633,7.686-1.894c6.17-0.616,9.988,2.589,10.256,8.735c0.268,6.154,0.129,12.326,0.125,18.49
			c0,1.093,0.265,2.527-1.521,2.536c-1.707,0.01-1.654-1.309-1.658-2.485c-0.017-5.666,0.03-11.332-0.033-16.997
			c-0.062-5.535-2.055-7.366-7.587-7.467c-3.476-0.062-6.423,1.438-9.5,2.679c-2.045,0.825-1.901,2.438-1.899,4.114
			c0.007,5.832,0.014,11.665-0.039,17.496c-0.01,1.052,0.423,2.489-1.332,2.711c-1.828,0.231-1.714-1.117-1.715-2.268
			c-0.014-9.1-0.008-18.199-0.008-27.298C624.387,271.386,624.799,271.113,625.211,270.841z"/>
		<path fill-rule="evenodd" clip-rule="evenodd" fill="#237A0F" d="M391.977,271.61c2.412,4.202,5.025,2.487,7.84,1.396
			c2.287-0.886,4.812-1.396,7.268-1.566c6.211-0.431,9.887,2.799,10.106,8.931c0.214,5.987,0.12,11.986,0.102,17.98
			c-0.004,1.219,0.418,2.959-1.762,2.772c-1.676-0.143-1.431-1.562-1.436-2.676c-0.026-5.661,0.058-11.324-0.038-16.983
			c-0.091-5.319-2.025-7.099-7.299-7.251c-3.639-0.104-6.767,1.422-9.995,2.744c-2.114,0.865-1.703,2.612-1.712,4.21
			c-0.028,5.662,0.032,11.323-0.032,16.984c-0.014,1.165,0.622,2.968-1.49,3.035c-2.245,0.071-1.509-1.81-1.517-2.935
			C391.949,289.372,391.977,280.491,391.977,271.61z"/>
		<path fill-rule="evenodd" clip-rule="evenodd" fill="#237B0D" d="M317.405,270.996c0.487,3.276,1.682,4.122,4.61,2.67
			c3.567-1.77,7.467-2.703,11.604-2.031c4.672,0.76,7.161,3.622,7.357,8.092c0.278,6.321,0.089,12.663,0.05,18.996
			c-0.006,1.075,0.299,2.522-1.567,2.466c-1.844-0.055-1.452-1.5-1.461-2.558c-0.042-5.5,0.02-11-0.033-16.5
			c-0.057-5.985-2.235-8.03-8.245-7.888c-8.104,0.191-10.808,2.905-10.812,10.848c-0.002,4.333,0.027,8.667-0.034,12.999
			c-0.018,1.209,0.532,2.993-1.511,3.063c-2.173,0.075-1.534-1.796-1.542-2.951c-0.056-8.874-0.03-17.749-0.03-26.624
			C316.329,271.384,316.867,271.189,317.405,270.996z"/>
		<path fill-rule="evenodd" clip-rule="evenodd" fill="#366B78" d="M858.246,208.552c0.969,3.706,2.812,3.897,5.489,2.405
			c2.012-1.12,4.319-1.608,6.685-1.779c8.574-0.618,11.667,2.113,11.771,10.643c0.061,4.99,0.1,9.984-0.032,14.972
			c-0.037,1.397,1.105,3.97-1.546,3.848c-2.379-0.108-1.434-2.607-1.467-4.082c-0.114-5.154,0.025-10.314-0.06-15.471
			c-0.091-5.489-2.736-7.903-8.169-7.472c-1.641,0.13-3.265,0.597-4.873,1.002c-4.325,1.092-6.749,3.22-6.16,8.363
			c0.582,5.091,0.141,10.3,0.117,15.457c-0.005,1.137,0.152,2.516-1.659,2.394c-1.397-0.095-1.37-1.214-1.372-2.201
			c-0.013-9.064-0.007-18.128-0.007-27.191C857.392,209.143,857.818,208.847,858.246,208.552z"/>
		<path fill-rule="evenodd" clip-rule="evenodd" fill="#366B77" d="M721.235,208.441c1.016,4.417,3.233,3.546,5.842,2.4
			c1.939-0.852,4.117-1.346,6.233-1.571c8.51-0.906,11.777,1.987,11.894,10.428c0.076,5.492,0.035,10.985,0.012,16.478
			c-0.005,1.108,0.254,2.579-1.483,2.58c-1.622,0-1.621-1.333-1.623-2.529c-0.006-5.659,0.05-11.319-0.036-16.977
			c-0.086-5.692-2.919-8.186-8.524-7.578c-1.481,0.16-2.96,0.491-4.396,0.897c-4.171,1.18-6.903,3.067-6.25,8.342
			c0.629,5.082,0.147,10.303,0.121,15.462c-0.006,1.13,0.16,2.52-1.629,2.442c-1.395-0.061-1.396-1.173-1.396-2.174
			c-0.01-9.071-0.006-18.144-0.006-27.215C720.406,209.098,720.82,208.77,721.235,208.441z"/>
		<path fill-rule="evenodd" clip-rule="evenodd" fill="#267C12" d="M434.583,298.369c3.407-8.382,6.396-15.727,9.378-23.074
			c0.311-0.766,0.587-1.546,0.89-2.314c0.497-1.267,1.453-1.922,2.741-1.466c1.908,0.677,0.537,2.111,0.231,2.861
			c-2.687,6.589-5.322,13.217-8.463,19.592c-1.26,2.56-0.693,7.201-4.836,7.141c-4.038-0.059-3.543-4.57-4.765-7.185
			c-2.867-6.14-5.39-12.442-7.966-18.715c-0.478-1.163-2.154-2.776,0.108-3.645c2.068-0.794,2.397,1.385,2.904,2.607
			C428.035,281.97,431.145,289.817,434.583,298.369z"/>
		<path fill-rule="evenodd" clip-rule="evenodd" fill="#346E78" d="M812.983,236.247c0.771-0.122,2.401-0.396,4.038-0.63
			c0.894-0.127,1.676,0.036,1.769,1.146c0.064,0.762-0.403,1.104-1.07,1.425c-8.341,3.996-20.938-1.532-22.733-10.005
			c-2.568-12.116,3.331-19.293,15.941-19.054c2.603,0.049,7.464-1.013,7.333,1.707c-0.161,3.356-4.249,0.606-6.532,0.598
			c-10.786-0.042-16.507,7.521-12.913,17.429C800.67,233.975,805.052,236.416,812.983,236.247z"/>
		<path fill-rule="evenodd" clip-rule="evenodd" fill="#336E76" d="M596.507,209.096c0.763,0.045,2.593,0.121,4.417,0.276
			c1.042,0.089,2.062,0.45,1.975,1.732c-0.107,1.567-1.383,1.104-2.267,1.003c-2.971-0.336-5.872-0.741-8.914-0.081
			c-6.36,1.38-9.404,4.605-9.662,10.804c-0.279,6.691,2.782,11.146,8.766,12.789c3.287,0.902,6.572,0.869,9.875,0.095
			c0.972-0.228,2.068-0.508,2.216,1.021c0.102,1.054-0.676,1.271-1.521,1.566c-13.383,4.672-24.837-4.916-22.35-18.737
			C580.298,212.579,585.833,209.043,596.507,209.096z"/>
		<path fill-rule="evenodd" clip-rule="evenodd" fill="#328321" d="M961.113,266.396c0.08,4.76,3.161,5.209,6.826,4.853
			c0.798-0.078,1.696,0.129,1.793,1.239c0.116,1.337-0.786,1.904-1.839,1.712c-6.086-1.114-5.284,3.031-5.235,6.68
			c0.048,3.654,0.01,7.31,0.057,10.963c0.046,3.518,0.364,6.846,5.191,6.729c0.884-0.021,1.652,0.485,1.645,1.472
			c-0.009,1.087-0.906,1.219-1.764,1.263c-3.384,0.173-7.049-0.528-7.608-4.085c-1.572-10.005-1.153-20.132-0.312-30.215
			C959.879,266.852,960.39,266.739,961.113,266.396z"/>
		<path fill-rule="evenodd" clip-rule="evenodd" fill="#3C8926" d="M462.186,285.99c-0.001-3.815-0.025-7.631,0.015-11.445
			c0.012-1.111-0.26-2.526,1.18-2.954c1.488-0.442,1.135,1.228,1.713,1.745c1.55,1.388,2.093-1.332,3.563-1.146
			c1.426,0.181,3.455-2.108,4.201,0.319c0.749,2.443-1.862,1.484-3.035,1.929c-2.538,0.963-4.104,2.429-4.028,5.477
			c0.149,5.968,0.051,11.943-0.004,17.914c-0.013,1.385,0.505,3.324-1.772,3.393c-2.396,0.072-1.78-1.945-1.806-3.287
			C462.137,293.954,462.186,289.972,462.186,285.99z"/>
		<path fill-rule="evenodd" clip-rule="evenodd" fill="#2A7917" d="M657.613,266.534c0.986,4.109,3.204,5.431,6.95,4.75
			c0.908-0.165,2.149-0.162,2.29,1.216c0.178,1.737-1.209,1.904-2.324,1.692c-4.864-0.925-4.799,2.007-4.637,5.441
			c0.196,4.138,0.113,8.292,0.036,12.437c-0.064,3.463,0.377,6.41,4.813,6.508c1.055,0.022,2.1,0.361,1.948,1.674
			c-0.166,1.438-1.471,1.049-2.346,1.054c-3.185,0.019-6.519-0.784-6.999-4.229C655.936,286.995,656.761,276.86,657.613,266.534z"/>
		<path fill-rule="evenodd" clip-rule="evenodd" fill="#2E6D7C" d="M639.35,223.821c-0.005-3.997-0.036-7.993,0.017-11.989
			c0.015-1.094,0.976-3.152,1.401-2.425c2.262,3.863,4.027,0.182,5.957-0.003c1.078-0.104,2.591-0.916,3.084,0.51
			c0.613,1.775-1.176,1.586-2.188,1.821c-3.661,0.849-5.162,3.041-4.996,6.842c0.218,4.985,0.171,9.993-0.03,14.981
			c-0.07,1.754,1.254,4.881-1.492,4.995c-3.049,0.127-1.545-3.055-1.674-4.747C639.178,230.495,639.355,227.151,639.35,223.821z"/>
		<path fill-rule="evenodd" clip-rule="evenodd" fill="#346876" d="M475.988,217.789c-0.006-5.477-0.051-10.953,0.031-16.429
			c0.018-1.139-0.751-3.023,1.299-3.13c2.495-0.129,1.671,2.033,1.678,3.288c0.07,11.451,0.059,22.902,0.021,34.353
			c-0.004,1.19,0.522,3.028-1.585,2.933c-2.047-0.094-1.399-1.914-1.411-3.092C475.961,229.738,475.993,223.764,475.988,217.789z"/>
		<path fill-rule="evenodd" clip-rule="evenodd" fill="#24720F" d="M941.914,281.259c0.005,5.663,0.026,11.327-0.012,16.989
			c-0.008,1.237,0.419,2.988-1.677,2.905c-2.071-0.081-1.494-1.872-1.498-3.049c-0.037-11.492-0.029-22.985,0.027-34.478
			c0.006-1.177-0.615-3.009,1.411-3.122c2.544-0.144,1.688,1.995,1.706,3.266C941.958,269.599,941.91,275.43,941.914,281.259z"/>
		<path fill-rule="evenodd" clip-rule="evenodd" fill="#31801F" d="M239.041,286.111c0-3.983-0.006-7.968,0.005-11.952
			c0.002-0.981-0.153-2.143,1.028-2.54c0.947-0.318,1.296,0.56,1.831,1.219c1.832,2.258,2.605-1.237,4.265-0.894
			c1.223,0.253,3.125-1.667,3.62,0.737c0.459,2.224-1.703,1.314-2.783,1.649c-3.239,1.004-4.877,3.02-4.775,6.585
			c0.151,5.308,0.141,10.627-0.062,15.932c-0.057,1.478,1.357,4.368-1.604,4.213c-2.64-0.138-1.366-2.901-1.451-4.494
			c-0.183-3.477-0.057-6.969-0.057-10.455C239.053,286.111,239.047,286.111,239.041,286.111z"/>
		<path fill-rule="evenodd" clip-rule="evenodd" fill="#366A74" d="M383.603,209.856c-0.49,2.039-1.973,1.644-2.963,1.987
			c-3.194,1.106-4.849,2.947-4.687,6.619c0.257,5.812,0.088,11.646,0.033,17.47c-0.012,1.194,0.517,2.986-1.67,2.848
			c-1.745-0.111-1.331-1.632-1.335-2.703c-0.023-8.153-0.018-16.309,0.017-24.462c0.01-2.168,0.335-3.776,2.415-0.954
			c0.918,1.245,1.713,0.057,2.517-0.278C379.724,209.634,381.46,208.429,383.603,209.856z"/>
		<path fill-rule="evenodd" clip-rule="evenodd" fill="#2C7C17" d="M685.136,271.409c2.208,5.367,4.608-0.507,6.999,0.114
			c0.734,0.19,1.647-0.3,1.906,0.864c0.283,1.277-0.314,1.759-1.547,1.863c-4.749,0.406-5.769,3.423-5.612,7.627
			c0.202,5.459,0.064,10.932,0.015,16.398c-0.012,1.217,0.436,2.978-1.658,2.896c-2.101-0.082-1.429-1.887-1.438-3.036
			c-0.061-7.951-0.052-15.903-0.02-23.854C683.786,273.224,683.474,271.899,685.136,271.409z"/>
		<path fill-rule="evenodd" clip-rule="evenodd" fill="#257413" d="M952.013,286.716c0.004,4.157,0.016,8.315-0.005,12.474
			c-0.006,0.993-0.021,2.025-1.479,2.047c-1.437,0.022-1.572-0.963-1.574-1.986c-0.019-8.481-0.02-16.963-0.009-25.445
			c0.001-1.21,0.116-2.453,1.808-2.312c1.44,0.12,1.23,1.329,1.238,2.251C952.029,278.067,952.009,282.392,952.013,286.716z"/>
		<path fill-rule="evenodd" clip-rule="evenodd" fill="#2E7F1B" d="M931.335,286.7c0,3.973,0.024,7.945-0.016,11.918
			c-0.011,1.09,0.249,2.506-1.462,2.612c-2.097,0.13-1.791-1.498-1.795-2.753c-0.021-8.111-0.017-16.223,0.013-24.334
			c0.004-1.104-0.202-2.53,1.461-2.645c2.098-0.144,1.777,1.551,1.794,2.786c0.053,4.138,0.02,8.276,0.02,12.415
			C931.345,286.7,931.34,286.7,931.335,286.7z"/>
		<path fill-rule="evenodd" clip-rule="evenodd" fill="#2E7F1A" d="M452.053,286.04c-0.001-3.975-0.026-7.949,0.015-11.924
			c0.012-1.09-0.248-2.485,1.441-2.653c1.748-0.173,1.761,1.175,1.766,2.322c0.036,8.446,0.041,16.893,0.033,25.339
			c-0.001,0.997-0.099,2.051-1.458,2.132c-1.671,0.1-1.794-1.067-1.794-2.298C452.054,294.652,452.055,290.346,452.053,286.04z"/>
		<path fill-rule="evenodd" clip-rule="evenodd" fill="#39737D" d="M238.226,223.799c-0.003,4.162,0.019,8.325-0.018,12.486
			c-0.01,1.11,0.188,2.604-1.561,2.505c-1.559-0.089-1.566-1.43-1.565-2.629c0.004-8.157,0.002-16.314,0.012-24.473
			c0.001-1.186-0.009-2.525,1.662-2.48c1.745,0.046,1.444,1.517,1.456,2.604C238.252,215.808,238.228,219.804,238.226,223.799z"/>
		<path fill-rule="evenodd" clip-rule="evenodd" fill="#2A6C7B" d="M387.823,224.272c0-4.313-0.011-8.627,0.008-12.94
			c0.005-0.99,0.019-2.094,1.424-2.111c1.313-0.017,1.62,0.926,1.621,2.008c0.008,8.461,0,16.921,0.008,25.382
			c0.001,1.106-0.317,2.091-1.537,2.122c-1.758,0.045-1.519-1.412-1.527-2.516c-0.034-3.98-0.014-7.963-0.014-11.944
			C387.812,224.272,387.817,224.272,387.823,224.272z"/>
		<path fill-rule="evenodd" clip-rule="evenodd" fill="#187B04" d="M888.185,286.192c0,4.158,0.028,8.318-0.02,12.477
			c-0.012,1.07,0.309,2.542-1.537,2.483c-1.368-0.044-1.449-1.127-1.452-2.143c-0.021-8.317-0.037-16.635-0.026-24.953
			c0.002-1.172,0.066-2.576,1.681-2.518c1.747,0.063,1.311,1.639,1.328,2.676C888.224,278.206,888.185,282.199,888.185,286.192z"/>
		<path fill-rule="evenodd" clip-rule="evenodd" fill="#4E7D84" d="M566.238,225.275c-1.752-0.676-5.822,1.378-5.854-1.391
			c-0.034-3.047,3.943-1.073,6.105-1.483c1.749-0.332,3.612-0.088,5.424-0.059c0.98,0.016,2.124,0.011,2.192,1.355
			c0.066,1.324-0.992,1.547-2.024,1.567C570.271,225.301,568.458,225.275,566.238,225.275z"/>
		<path fill-rule="evenodd" clip-rule="evenodd" fill="#323A40" d="M867.934,50.241c0.006-2.661-0.781-3.624-3.498-4.171
			c-14.628-2.944-29.39-3.775-44.2-2.626c-19.731,1.532-32.747,12.939-36.729,32.173c-2.635,12.729-2.128,25.487,2.071,37.899
			c4.082,12.066,12.452,19.851,24.646,23.308c8.063,2.287,16.337,2.86,24.714,1.949c7.602-0.827,15.09-2.269,22.782-4.042
			c1.17,17.62-6.957,27.381-23.609,29.672c-12.579,1.73-24.846,0.287-37.106-2.373c-1.507-0.327-4.133-2.899-4.658,0.344
			c-0.41,2.53-2.187,6.545,2.615,7.749c16.512,4.139,33.145,5.335,49.751,0.976c14.202-3.729,22.962-14.529,23.092-28.949
			C868.08,111.516,867.858,80.877,867.934,50.241z M853.619,125.891c-10.108,2.192-20.181,4.051-30.595,3.426
			c-16.396-0.984-27.226-10.547-30.096-26.678c-1.412-7.932-1.57-15.845-0.083-23.79c2.872-15.337,12.85-24.909,28.188-26.5
			c11.305-1.172,22.582-0.005,33.838,1.132c2.413,0.244,3.226,1.363,3.189,3.885c-0.153,10.647-0.065,21.299-0.063,31.949
			c0.001,10.15-0.118,20.303,0.067,30.45C858.128,123.205,857.517,125.046,853.619,125.891z"/>
		<path fill-rule="evenodd" clip-rule="evenodd" fill="#323B40" d="M963.853,135.293c0.07-10.655,0.038-21.311,0.036-31.966
			c-0.003-9.823-0.005-19.646-0.002-29.469c0.004-14.632-7.02-24.426-21.158-28.256c-16.447-4.456-32.932-3.159-49.283,0.996
			c-4.574,1.163-2.679,4.906-2.443,7.401c0.279,2.951,2.792,1.109,4.24,0.77c12.386-2.907,24.823-4.313,37.555-2.54
			c13.447,1.873,21,8.896,21.197,20.225c0.202,11.62,0.229,11.246-11.693,10.361c-13.085-0.971-26.268-1.827-39.197,1.631
			c-14.184,3.795-20.337,12.41-20.109,27.954c0.187,12.781,7.727,21.844,20.906,24.937c15.562,3.652,30.747,1.162,45.684-3.365
			c3.631-1.1,6.152-1.665,7.21,2.852c0.705,3.014,3.19,2.429,5.27,2.3C964.768,138.955,963.843,136.734,963.853,135.293z
			 M947.537,125.485c-12.685,3.918-25.435,6.572-38.691,3.818c-11.823-2.457-17.796-11.272-15.775-23.076
			c1.002-5.856,4.618-9.723,10.016-12.103c7.664-3.381,15.812-3.693,23.928-3.522c7.957,0.167,15.893,1.169,23.851,1.511
			c2.729,0.117,3.277,1.156,3.178,3.574c-0.163,3.984-0.044,7.98-0.045,11.971c-0.001,2.994-0.419,6.06,0.089,8.965
			C955.051,122.143,952.296,124.016,947.537,125.485z"/>
		<path fill-rule="evenodd" clip-rule="evenodd" fill="#333B3F" d="M739.752,73.145c-1.385-14.969-9.098-24.843-21.871-28.512
			c-7.993-2.295-16.229-2.091-24.31-1.123c-13.793,1.651-25.17,7.573-31.271,20.861c-5.54,12.066-5.756,24.879-3.994,37.698
			c1.31,9.527,4.716,18.299,11.947,25.196c7.748,7.39,17.249,10.203,27.579,11.268c12.027,1.239,23.911-0.04,35.814-1.512
			c5.225-0.646,3.139-4.544,3.275-7.224c0.192-3.772-2.776-1.469-3.874-1.303c-6.923,1.047-13.837,1.966-21.474,1.889
			c-4.396,0.21-9.359-0.335-14.295-1.138c-17.706-2.879-28.272-14.208-29.629-31.279c-0.311-3.907,0.673-4.919,4.619-4.881
			c20.993,0.205,41.99,0.014,62.983,0.183c3.31,0.027,4.515-1.05,4.504-4.15C739.739,83.791,740.24,78.424,739.752,73.145z
			 M726.665,84.312c-9.316-0.049-18.633-0.021-27.948-0.021c-8.983,0-17.974-0.192-26.947,0.091
			c-3.801,0.119-4.319-1.162-3.922-4.568c2.699-23.12,18.868-30.513,39.017-28.149c18.05,2.118,23.18,14.524,23.195,29.896
			C730.062,84.382,728.652,84.322,726.665,84.312z"/>
		<path fill-rule="evenodd" clip-rule="evenodd" fill="#346D77" d="M1045.97,216.862c-3.843,0.653-4.163-2.654-5.617-5.76
			c-1.914,5.533-1.914,5.539-7.505,5.537c-2.826-0.001-5.66,0.098-8.477-0.07c-5.037-0.3-7.826-2.83-8.082-7.088
			c-0.261-4.358,2.188-7.043,6.92-8.336c4.207-1.15,8.239-0.024,12.347,0.268c0.858,0.062,2.03,0.928,2.342-0.706
			c0.282-1.477-0.983-1.49-1.866-1.762c-3.56-1.093-7.221-0.948-10.869-0.754c-5.106,0.271-9.502,1.691-11.305,7.212
			c-1.758,5.384-0.02,9.551,4.604,12.649c-8.971,6.849-5.205,18.21,2.274,19.991c9.836,2.343,22.392,0.713,21.483-14.994
			c-0.123-2.132-0.159-4.108,2.946-3.749c0.836,0.097,1.71-0.265,1.597-1.361C1046.721,217.54,1046.18,216.826,1045.97,216.862z
			 M1037.364,231.652c-3.426,5.284-14.236,6.33-18.728,1.869c-4.36-4.332-2.467-11.728,3.407-13.521
			c2.78-0.849,5.599-0.28,8.039-0.494c0.683,0,1.023-0.048,1.345,0.008c2.48,0.437,6.23-1.442,7.23,1.164
			C1039.971,224.101,1039.581,228.231,1037.364,231.652z"/>
		<path fill-rule="evenodd" clip-rule="evenodd" fill="#257D11" d="M907.467,271.164c-2.814-0.011-6.139,2.385-8.076,0.574
			c-2.07-1.937-0.438-5.655-0.746-8.575c-0.116-1.094,0.209-2.584-1.456-2.68c-2.054-0.118-1.782,1.587-1.792,2.837
			c-0.045,5.644-0.02,11.288-0.02,16.933c0.008,0,0.017,0,0.024,0c0,2.988,0.001,5.977,0,8.966
			c-0.001,12.652-0.001,12.652,12.881,12.129c9.673-0.392,14.188-5.783,13.896-16.586
			C921.931,275.689,916.945,271.198,907.467,271.164z M916.188,295.145c-2.564,2.854-12.179,4.534-15.995,2.916
			c-1.634-0.693-1.525-1.996-1.543-3.296c-0.037-2.828-0.012-5.657-0.019-8.486c-0.008-1.164-0.21-2.373,0.032-3.485
			c0.604-2.782-2.117-6.702,3.438-7.786c7.397-1.444,13.317-0.285,15.702,4.081C920.158,283.4,919.328,291.649,916.188,295.145z"/>
		<path fill-rule="evenodd" clip-rule="evenodd" fill="#306D78" d="M454.919,210.598c-3.838-2.862-9.612-1.69-14.597-1.253
			c-1.298,0.114-2.613,0.552-3.818,1.074c-2.87,1.244-4.922,3.376-6.072,6.295c-5.188,13.165,2.601,23.418,16.537,21.794
			c0.992-0.116,2.021-0.097,2.971-0.36c3.843-1.065,3.365,1.13,2.585,3.425c-1.379,4.059-5.975,6.069-12.243,5.433
			c-2.566-0.261-5.105-1.21-7.761,0.156c5.132,3.042,10.654,2.867,16.096,1.597c4.987-1.166,7.42-4.72,7.398-9.896
			c-0.021-5.495,0.168-10.996-0.06-16.481C455.788,218.342,457.952,212.86,454.919,210.598z M446.575,235.639
			c-7.41,1.052-12.041-1.236-13.573-6.916c-1.403-5.203-1.577-10.443,2.807-14.358c4.618-4.124,10.318-2.757,15.753-2.11
			c1.681,0.199,1.379,1.607,1.393,2.716c0.034,2.832,0.012,5.664,0.018,8.497c0.007,1.166,0.007,2.332,0.007,3.498
			C452.979,234.73,452.979,234.73,446.575,235.639z"/>
		<path fill-rule="evenodd" clip-rule="evenodd" fill="#356C78" d="M680.94,220.7c-0.917-8.213-6.578-12.593-15.385-11.848
			c-2.626,0.222-6.193,1.744-7.63,0.577c-1.964-1.595-0.395-5.303-0.733-8.077c-0.142-1.168,0.647-3.059-1.402-3.099
			c-2.413-0.048-1.651,2.07-1.673,3.37c-0.087,5.322-0.036,10.646-0.036,15.971c0.01,0,0.021,0,0.03,0
			c0,5.656,0.076,11.314-0.038,16.969c-0.046,2.225,0.651,3.549,2.961,3.652c3.967,0.179,7.867,1.084,11.916,0.425
			C677.806,237.198,682.085,230.951,680.94,220.7z M659.028,235.488c-1.745-0.623-1.815-1.65-1.822-2.994
			c-0.017-2.827-0.005-5.654-0.001-8.481c0.003-0.831,0.004-1.663,0.003-2.494c-0.013-9.186,0.151-9.367,8.678-9.553
			c7.994-0.174,11.88,3.189,12.102,10.477C678.323,233.44,669.706,239.298,659.028,235.488z"/>
		<path fill-rule="evenodd" clip-rule="evenodd" fill="#237C0E" d="M784.005,279.274c-1.176-3.423-3.512-5.663-6.763-6.793
			c-5.704-1.982-11.51-0.941-17.282-0.116c-2.208,0.316-1.872,1.993-1.881,3.429c-0.033,5.662-0.014,11.323-0.009,16.985
			s-0.006,11.323,0.013,16.985c0.004,1.191,0.063,2.458,1.775,2.352c1.38-0.086,1.398-1.197,1.422-2.182
			c0.044-1.83,0.185-3.682-0.021-5.49c-0.414-3.654,0.683-4.417,4.434-3.66C780.194,303.711,788.845,293.358,784.005,279.274z
			 M780.406,293.01c-2.587,5.088-13.613,7.48-18.197,3.982c-0.95-0.725-0.921-1.687-0.922-2.661
			c-0.009-5.482-0.096-10.967,0.049-16.445c0.093-3.516,0.294-3.532,7.499-3.685C780.062,273.964,785.554,282.891,780.406,293.01z"
			/>
		<path fill-rule="evenodd" clip-rule="evenodd" fill="#237C0D" d="M718.963,287.249c3.275,0.29,3.96-1.341,3.932-4.154
			c-0.065-6.383-2.722-10.121-8.298-11.324c-6.845-1.476-14.065,1.469-16.288,6.641c-5.403,12.578,1.541,23.077,15.184,22.941
			c1.332-0.013,2.675-0.014,3.99-0.192c1.564-0.212,4.196,0.099,4.13-1.733c-0.093-2.555-2.616-0.883-4.019-1.01
			c-2.641-0.239-5.342,0.117-7.969-0.19c-4.276-0.499-7.386-2.658-8.873-6.958c-0.96-2.778-1.013-4.48,2.724-4.153
			c2.48,0.217,4.995,0.041,7.494,0.041c0,0.015,0,0.03,0,0.045C713.636,287.201,716.318,287.014,718.963,287.249z M709.722,284.277
			c-1.82,0.003-3.641,0.016-5.462,0.001c-4.553-0.036-4.973-0.821-2.961-5.121c2.354-5.031,6.783-5.246,11.375-4.908
			c4.076,0.299,5.921,2.992,6.883,6.692c0.713,2.746-0.25,3.551-2.887,3.367C714.364,284.147,712.039,284.274,709.722,284.277z"/>
		<path fill-rule="evenodd" clip-rule="evenodd" fill="#257B10" d="M598.36,287.175c2.486,0.182,4.996,0.037,7.496,0.039
			c2.333,0.002,4.703-0.263,6.991,0.057c4.865,0.681,5.376-2.224,4.821-5.729c-0.734-4.638-2.401-8.566-7.843-9.686
			c-6.202-1.275-12.791,0.581-15.758,4.896c-3.506,5.098-2.955,15.766,1.047,20.274c3.487,3.929,15.604,6.097,20.239,3.612
			c0.565-0.304,1.255-0.603,1.104-1.42c-0.213-1.153-1.19-0.945-1.974-0.949c-3.328-0.015-6.681,0.267-9.978-0.05
			c-4.472-0.43-7.72-2.699-9.114-7.262C594.518,288.092,595.305,286.952,598.36,287.175z M595.916,279.528
			c1.782-4.19,5.727-6.038,11.582-5.266c3.692,0.487,5.901,2.546,6.583,6.282c0.467,2.562,0.158,4.129-3.077,3.753
			c-2.28-0.265-4.616-0.052-6.928-0.052c0,0.01,0,0.019,0,0.028c-1.651,0-3.328-0.188-4.948,0.036
			C594.626,284.934,594.515,282.822,595.916,279.528z"/>
		<path fill-rule="evenodd" clip-rule="evenodd" fill="#217C0D" d="M380.697,287.238c3.438,0.361,4.735-0.898,4.664-4.405
			c-0.131-6.525-2.664-9.901-8.945-11.183c-6.948-1.416-13.733,1.482-15.663,7.448c-2.046,6.329-2.279,12.851,2.494,18.337
			c3.248,3.731,14.34,5.463,19.37,3.354c0.774-0.325,1.613-0.58,1.392-1.667c-0.24-1.182-1.229-0.846-1.987-0.849
			c-3.314-0.017-6.654,0.258-9.939-0.056c-4.265-0.406-7.425-2.627-8.79-6.9c-0.851-2.662-0.617-4.508,2.963-4.225
			c2.475,0.196,4.979,0.038,7.469,0.038c0,0.02,0,0.04,0,0.061C376.05,287.192,378.396,286.996,380.697,287.238z M372.187,284.279
			c-1.487-0.002-2.983,0.093-4.461-0.028c-1.563-0.128-3.71,0.844-4.556-0.719c-0.996-1.841,0.252-3.897,1.283-5.545
			c2.616-4.184,6.869-4.052,11.044-3.709c3.374,0.276,5.368,2.496,6.262,5.534c0.736,2.505,0.992,5.02-3.13,4.514
			C376.512,284.066,374.336,284.28,372.187,284.279z"/>
		<path fill-rule="evenodd" clip-rule="evenodd" fill="#237B0D" d="M259.309,287.167c2.456,0.298,4.978,0.056,7.47,0.056
			c0-0.007,0-0.014,0-0.021c2.493,0,5.005-0.199,7.473,0.05c3.119,0.315,4.021-0.959,4.015-3.929
			c-0.013-6.674-2.102-9.873-7.929-11.415c-6.377-1.688-13.54,0.889-16.101,5.79c-3,5.744-2.027,15.623,1.947,19.77
			c3.396,3.543,14.376,5.392,19.387,3.269c0.748-0.317,1.659-0.528,1.438-1.633c-0.237-1.185-1.242-0.831-1.993-0.832
			c-3.149-0.007-6.316,0.248-9.444,0.003c-4.472-0.352-7.917-2.516-9.342-6.964C255.434,288.829,255.564,286.713,259.309,287.167z
			 M257.484,277.942c2.868-4.38,7.311-4,11.577-3.573c3.107,0.311,4.888,2.568,5.68,5.497c0.729,2.702,0.836,4.963-3.198,4.454
			c-2.117-0.267-4.295-0.047-6.446-0.046c-1.488,0.001-2.99,0.124-4.463-0.032c-1.535-0.163-3.672,0.972-4.483-0.747
			C255.272,281.635,256.366,279.648,257.484,277.942z"/>
		<path fill-rule="evenodd" clip-rule="evenodd" fill="#336D78" d="M626.496,210.295c-5.874-1.978-11.655-1.663-17.204,0.995
			c2.405,1.7,4.773,0.68,7.118,0.43c3.379-0.361,6.68-0.18,9.682,1.486c2.702,1.5,3.451,4.179,2.693,6.904
			c-0.69,2.482-3.053,1.003-4.663,1.134c-3.632,0.297-7.297-0.401-10.923,0.662c-4.509,1.322-6.64,4.162-6.315,8.841
			c0.311,4.499,2.92,6.726,7.168,7.697c3.718,0.851,7.337,0.383,10.872-0.478c2.343-0.57,4.419-0.99,7.095,1.869
			c0-7.387-0.119-13.206,0.038-19.017C632.182,216.174,631.563,212.001,626.496,210.295z M624.599,235.371
			c-2.965,0.292-5.88,1.341-8.894,0.725c-3.422-0.7-5.858-2.511-5.771-6.371c0.084-3.733,2.568-5.207,5.87-5.552
			c1.811-0.188,3.656-0.033,5.486-0.033c0-0.046,0-0.091,0-0.136c0.833,0,1.71-0.17,2.49,0.033c2.025,0.53,5.504-1.267,5.19,3.191
			C628.732,230.619,630.397,234.799,624.599,235.371z"/>
		<path fill-rule="evenodd" clip-rule="evenodd" fill="#237B0E" d="M305.247,273.443c-5.13-3.093-10.612-2.832-15.63-0.027
			c-6.419,3.589-6.33,9.913-5.745,16.229c0.493,5.322,3.168,8.968,8.24,10.714c4.357,1.5,8.846,1.149,13.307,0.611
			c1.043-0.126,2.682-0.105,2.578-1.667c-0.121-1.833-1.764-0.958-2.752-0.982c-2.98-0.075-5.992,0.244-8.939-0.072
			c-3.992-0.428-7.238-2.287-8.798-6.282c-1.146-2.936-1.396-5.248,3.04-4.797c2.301,0.234,4.646,0.041,6.97,0.041
			c0-0.008,0-0.016,0-0.023c2.822,0,5.645,0.017,8.467-0.009c1.289-0.011,2.562,0.203,3.15-1.604
			C310.301,281.993,308.485,275.396,305.247,273.443z M302.957,284.323c-2.116-0.259-4.289-0.048-6.437-0.045
			c-1.486,0.003-2.991,0.148-4.455-0.035c-1.685-0.211-4.031,1.081-4.927-0.866c-0.943-2.054,0.405-4.22,1.67-5.923
			c2.908-3.915,7.213-3.665,11.309-3.032c3.198,0.494,5.132,2.851,5.794,6.034C306.392,282.768,306.38,284.743,302.957,284.323z"/>
		<path fill-rule="evenodd" clip-rule="evenodd" fill="#326E7A" d="M317.447,224.508c2.158-0.028,4.317-0.005,6.476-0.007
			c2.656-0.003,5.327-0.176,7.967,0.041c3.324,0.272,3.923-1.485,3.804-4.232c-0.269-6.216-2.956-9.925-8.12-11.004
			c-7.122-1.488-14.118,1.101-16.241,6.504c-2.406,6.126-2.707,12.543,1.345,18.055c4.027,5.478,10.297,5.511,16.343,4.73
			c1.791-0.23,5.449,1.053,5.15-1.924c-0.258-2.562-3.321-0.36-5.08-0.401c-5.73-0.134-11.511,0.041-14.893-5.795
			C311.727,226.21,312.7,224.569,317.447,224.508z M314.417,215.891c2.32-4.04,6.192-4.671,10.298-4.341
			c3.318,0.267,6.142,1.725,7.139,5.167c0.786,2.713,1.069,5.416-3.325,4.966c-2.124-0.217-4.29-0.037-6.437-0.031
			c-1.486,0.007-2.973,0.013-4.459,0.006C312.65,221.634,311.891,220.292,314.417,215.891z"/>
		<path fill-rule="evenodd" clip-rule="evenodd" fill="#346D78" d="M770.805,224.464c2.305,0.212,4.646,0.037,6.971,0.041
			c2.657,0.003,5.328-0.171,7.967,0.048c3.152,0.261,4.062-1.126,3.951-4.055c-0.229-6.029-2.68-9.809-7.445-11.028
			c-6.915-1.771-14.233,0.561-16.587,5.728c-2.75,6.037-2.988,12.327,0.617,18.106c3.33,5.338,8.997,5.661,14.583,5.615
			c1.65-0.014,3.303-0.319,4.945-0.554c1.064-0.152,2.688,0.169,2.556-1.553c-0.141-1.841-1.628-1.141-2.697-0.954
			c-3.82,0.667-7.601,0.595-11.333-0.534c-3.196-0.967-5.544-2.802-6.708-6.082C766.511,226.106,766.593,224.076,770.805,224.464z
			 M769.156,214.815c3.942-5.094,14.221-4.266,16.53,1.286c1.631,3.921,0.675,5.467-3.468,5.553
			c-1.818,0.037-3.639,0.006-5.458,0.012c-1.488,0.006-2.991,0.139-4.461-0.028c-1.704-0.194-4.12,1.008-4.953-0.934
			C766.477,218.676,767.828,216.531,769.156,214.815z"/>
		<path fill-rule="evenodd" clip-rule="evenodd" fill="#326D79" d="M359.217,209.499c-6.66-1.887-13.965,0.512-16.796,5.515
			c-6.171,10.903,0.152,23.006,12.535,23.887c1.799,0.128,3.686,0.041,5.431-0.373c1.588-0.376,4.658,0.756,4.475-1.623
			c-0.212-2.757-2.916-0.775-4.418-0.698c-3.365,0.174-6.648,0.002-9.852-1.021c-3.219-1.029-5.444-3.192-6.394-6.435
			c-0.744-2.536-0.655-4.629,3.048-4.288c2.472,0.227,4.981,0.043,7.475,0.043c0,0.006,0,0.013,0,0.019
			c2.658,0,5.328-0.149,7.974,0.043c2.551,0.185,3.488-0.674,3.565-3.304C366.442,215.049,364.09,210.879,359.217,209.499z
			 M359.049,221.717c-1.978-0.198-3.99-0.034-5.987-0.041c-1.331-0.006-2.683,0.14-3.989-0.043
			c-1.683-0.234-4.052,1.045-4.906-1.073c-0.864-2.145,0.48-4.248,1.893-5.908c2.801-3.295,6.626-3.537,10.521-2.931
			c3.006,0.469,5.195,2.245,6.121,5.209C363.695,220.115,363.006,222.114,359.049,221.717z"/>
		<path fill-rule="evenodd" clip-rule="evenodd" fill="#237B0E" d="M803.912,271.359c-9.401-0.078-14.287,5.044-14.396,15.094
			c-0.104,9.595,4.819,14.853,13.948,14.893c9.769,0.043,14.489-4.728,14.562-14.715C818.1,276.585,813.344,271.439,803.912,271.359
			z M803.764,298.555c-7.52-0.065-11.19-4.242-11.129-12.658c0.059-7.898,3.886-11.789,11.503-11.694
			c7.325,0.091,10.852,4.129,10.793,12.359C814.872,294.727,811.247,298.62,803.764,298.555z"/>
		<path fill-rule="evenodd" clip-rule="evenodd" fill="#267C10" d="M490.286,271.342c-9.191-0.121-14.299,4.989-14.468,14.479
			c-0.182,10.173,4.441,15.362,13.817,15.514c9.775,0.158,14.447-4.524,14.58-14.611
			C504.349,276.544,499.75,271.466,490.286,271.342z M489.577,298.589c-7.133-0.157-10.693-4.38-10.638-12.617
			c0.055-8.038,3.727-11.85,11.336-11.768c7.508,0.082,10.896,3.927,10.794,12.248C500.966,294.963,497.37,298.76,489.577,298.589z"
			/>
		<path fill-rule="evenodd" clip-rule="evenodd" fill="#366C77" d="M258.051,209.067c-9.363,0.066-14.091,5.065-14.063,14.87
			c0.028,9.853,5.19,15.161,14.593,15.009c9.17-0.149,14.033-5.351,14.081-15.06C272.71,213.988,267.79,208.998,258.051,209.067z
			 M258.171,236.273c-7.018-0.032-11.091-4.596-11.118-12.455c-0.027-8.066,4.183-12.52,11.654-12.326
			c7.304,0.188,10.704,4.215,10.651,12.611C269.307,232.22,265.549,236.307,258.171,236.273z"/>
		<path fill-rule="evenodd" clip-rule="evenodd" fill="#326E79" d="M902.846,209.07c-9.682-0.064-14.721,5.014-14.714,14.828
			c0.007,9.497,5.075,14.884,14.166,15.055c9.406,0.178,14.497-5.056,14.603-15.01C917.002,214.301,912.117,209.132,902.846,209.07z
			 M902.787,236.271c-7.285,0.164-11.54-4.489-11.514-12.591c0.026-7.938,4.008-12.229,11.299-12.174
			c7.322,0.055,11.169,4.242,11.241,12.235C913.885,231.637,909.948,236.109,902.787,236.271z"/>
		<path fill-rule="evenodd" clip-rule="evenodd" fill="#366D7A" d="M499.643,209.062c-9.828-0.049-14.636,4.798-14.675,14.79
			c-0.037,9.638,4.896,14.958,14.012,15.109c9.581,0.16,14.78-5.308,14.708-15.47C513.621,214.105,508.755,209.106,499.643,209.062z
			 M499.022,236.268c-7.006-0.112-11.027-4.723-10.998-12.605c0.03-7.869,4.062-12.196,11.324-12.153
			c7.59,0.045,11.121,4.146,10.987,12.76C510.209,232.424,506.472,236.388,499.022,236.268z"/>
		<path fill-rule="evenodd" clip-rule="evenodd" fill="#336D76" d="M699.714,209.079c-9.358-0.019-14.032,4.794-14.28,14.707
			c-0.239,9.568,5.109,15.149,14.505,15.134c9.267-0.015,14.02-5.035,14.085-14.877
			C714.091,213.892,709.508,209.099,699.714,209.079z M699.987,236.279c-7.387,0.077-11.312-4.318-11.316-12.671
			c-0.005-7.777,3.74-11.99,10.768-12.112c7.505-0.13,11.533,4.186,11.533,12.355C710.972,231.846,707.119,236.205,699.987,236.279z
			"/>
		<path fill-rule="evenodd" clip-rule="evenodd" fill="#336C77" d="M836.961,209.1c-9.635-0.035-14.525,4.978-14.563,14.928
			c-0.037,9.46,5.076,14.802,14.275,14.911c9.45,0.113,14.354-5.058,14.36-15.143C851.04,213.928,846.449,209.135,836.961,209.1z
			 M837.067,236.276c-7.425,0.128-11.348-4.22-11.36-12.591c-0.012-8.092,3.779-12.245,11.12-12.181
			c7.325,0.063,11.159,4.269,11.163,12.245C847.995,231.744,844.149,236.154,837.067,236.276z"/>
	</g>
</g>
</svg>
